<?xml version="1.0" encoding="UTF-8" standalone="no"?>
<!-- Created with Inkscape (http://www.inkscape.org/) -->

<svg
   xmlns:dc="http://purl.org/dc/elements/1.1/"
   xmlns:cc="http://creativecommons.org/ns#"
   xmlns:rdf="http://www.w3.org/1999/02/22-rdf-syntax-ns#"
   xmlns:svg="http://www.w3.org/2000/svg"
   xmlns="http://www.w3.org/2000/svg"
   xmlns:sodipodi="http://sodipodi.sourceforge.net/DTD/sodipodi-0.dtd"
   xmlns:inkscape="http://www.inkscape.org/namespaces/inkscape"
   id="svg4136"
   version="1.1"
   inkscape:version="0.91 r13725"
   width="187.47818"
   height="161.15836"
   viewBox="0 0 187.47818 161.15836"
   sodipodi:docname="omnis vanitas.svg">
  <metadata
     id="metadata4142">
    <rdf:RDF>
      <cc:Work
         rdf:about="">
        <dc:format>image/svg+xml</dc:format>
        <dc:type
           rdf:resource="http://purl.org/dc/dcmitype/StillImage" />
        <dc:title></dc:title>
      </cc:Work>
    </rdf:RDF>
  </metadata>
  <defs
     id="defs4140" />
  <sodipodi:namedview
     pagecolor="#ffffff"
     bordercolor="#666666"
     borderopacity="1"
     objecttolerance="10"
     gridtolerance="10"
     guidetolerance="10"
     inkscape:pageopacity="0"
     inkscape:pageshadow="2"
     inkscape:window-width="1280"
     inkscape:window-height="778"
     id="namedview4138"
     showgrid="false"
     fit-margin-top="0"
     fit-margin-left="0"
     fit-margin-right="0"
     fit-margin-bottom="0"
     inkscape:zoom="3.4925714"
     inkscape:cx="146.05911"
     inkscape:cy="75.551502"
     inkscape:window-x="-8"
     inkscape:window-y="-8"
     inkscape:window-maximized="1"
     inkscape:current-layer="svg4136" />
  <path
     style="fill:#000000"
     d="m 94.078078,161.2278 -92.8124985,0 0,-13.125 c 0,-9.87068 0.290564,-13.12701 1.171875,-13.13308 0.644532,-0.005 5.390625,-2.20823 10.5468755,-4.89728 l 9.375,-4.88919 11.71875,-0.69767 c 6.445312,-0.38371 16.148438,-0.94668 21.562498,-1.25104 8.74302,-0.4915 10.60296,-0.92287 16.63327,-3.85768 3.73423,-1.81736 7.0086,-3.65879 7.27638,-4.09205 0.26777,-0.43326 1.74764,-1.06467 3.2886,-1.40312 1.54096,-0.33845 2.80175,-1.21466 2.80175,-1.94713 0,-0.73246 -0.37267,-1.33176 -0.82816,-1.33176 -0.45548,0 -1.04925,-0.84549 -1.31949,-1.87887 -0.34526,-1.32029 -0.97076,-1.69489 -2.10398,-1.26004 -1.38254,0.53053 -1.55555,0.12979 -1.21251,-2.80863 0.35103,-3.00681 0.15262,-3.42746 -1.61672,-3.42746 -1.10927,0 -3.41155,-0.94922 -5.11617,-2.109369 -1.70462,-1.16016 -3.96883,-3.28302 -5.03156,-4.71747 -1.39197,-1.87882 -2.03563,-4.43752 -2.30195,-9.15077 -0.24386,-4.31579 0.0247,-7.01786 0.78897,-7.938782 0.96661,-1.16469 0.81594,-1.3961 -0.90895,-1.3961 -2.02866,0 -5.92461,1.5325 -1.62463,-9.843748 2.93138,-7.755431 0.22202,-9.84375 -0.95017,-9.84375 -1.0901,0 -1.32248,-1.019773 -1.06828,-4.688147 0.19712,-2.844748 -0.0438,-4.567085 -0.61265,-4.380262 -0.51562,0.169336 -1.06753,2.074438 -1.22647,4.233557 -0.20948,2.845847 -0.87393,4.308952 -2.41556,5.319071 -1.63722,1.072746 -2.03136,2.04229 -1.71274,4.213175 0.22762,1.550878 -0.10813,3.448727 -0.7461,4.217443 -0.70203,0.84589 -2.76711,1.397663 -5.23093,1.397663 -3.081648,0 -4.309595,0.445859 -5.052856,1.834658 -0.548327,1.02456 -2.430234,2.10637 -4.262012,2.45001 -1.919623,0.36012 -3.790628,0.19168 -4.510913,-0.4061 -0.840795,-0.6978 -1.535362,-0.71687 -2.192032,-0.0602 -0.530592,0.53059 -3.859748,0.83561 -7.430818,0.68082 -6.404119,-0.27759 -6.478641,-0.31125 -7.366564,-3.3273 -0.846274,-2.874586 -1.144606,-3.046878 -5.275833,-3.046878 -2.75901,0 -4.812889,-0.523001 -5.5521995,-1.413817 -0.738179,-0.889451 -0.997318,-2.975686 -0.698702,-5.625 0.353212,-3.133686 0.152756,-4.211183 -0.783444,-4.211183 -0.691958,0 -1.730702,-0.883055 -2.30832,-1.962344 -0.577618,-1.079298 -0.934259,-3.926955 -0.792535,-6.328135 0.141723,-2.401179 -0.311424,-6.159994 -1.006994,-8.352921 -0.948661,-2.99085 -1.008154,-4.550134 -0.238092,-6.240236 0.564618,-1.239203 3.166546,-3.452803 5.782061,-4.91911 2.6155155,-1.466307 4.9695845,-3.335807 5.2312655,-4.154444 0.261681,-0.818637 1.666878,-2.822543 3.122661,-4.453125 1.715907,-1.921941 3.524253,-2.964695 5.141378,-2.964695 2.019718,0 2.494501,0.43556 2.494501,2.288422 0,1.258632 0.330662,2.492781 0.734804,2.742555 0.404142,0.249774 3.040861,-0.992315 5.859375,-2.760197 4.162402,-2.610821 5.916668,-3.169757 9.343321,-2.97693 4.016932,0.226043 4.232804,0.383158 4.512523,3.284275 l 0.293774,3.046875 6.162701,0 6.16271,0 -0.48591,6.053451 -0.48592,6.053449 6.20725,0.274676 c 5.06661,0.224201 6.26545,0.579966 6.52405,1.936061 0.18314,0.960443 -0.90049,2.729542 -2.56844,4.193142 -1.92169,1.686255 -2.88524,3.401291 -2.88524,5.135487 0,1.575112 0.5056,2.603734 1.27982,2.603734 0.7039,0 2.3914,-0.87437 3.75,-1.943044 1.39214,-1.095057 2.47018,-2.886114 2.47018,-4.103958 0,-1.188503 0.58197,-2.643907 1.29327,-3.234231 0.7113,-0.590324 1.561,-2.411965 1.88822,-4.048091 0.32723,-1.636127 1.02714,-4.579791 1.55537,-6.541476 0.52823,-1.961685 1.39417,-3.5667 1.92433,-3.5667 0.53015,0 2.43442,-1.121607 4.2317,-2.49246 1.91631,-1.46164 2.8552,-2.74745 2.27019,-3.109009 -0.5815,-0.359383 -0.75092,-1.849926 -0.4062,-3.573546 0.32527,-1.626349 1.32355,-3.189375 2.21841,-3.4733921 0.89486,-0.284016 3.2003,-2.08947 5.1232,-4.012119 l 3.49618,-3.495725 15.624552,-0.16881 c 8.59349,-0.09285 17.52297,-0.287434 19.84328,-0.4324171 2.32031,-0.144984 5.37891,0.04449 6.79687,0.4210461 1.41797,0.37656 2.57813,1.238668 2.57813,1.915798 0,0.920502 1.31314,1.122249 5.20425,0.799568 l 5.20424,-0.431577 -0.61837,2.463821 c -0.54927,2.18843 -0.34505,2.463822 1.827,2.463822 2.16972,0 2.44538,0.369884 2.44538,3.2812501 0,2.65625 0.35714,3.28125 1.875,3.28125 1.45834,0 1.875,0.625 1.875,2.8125 0,2.375 0.36458,2.8125 2.34375,2.8125 2.13473,0 2.34375,0.35764 2.34375,4.010399 0,2.861987 0.54168,4.474196 1.89159,5.630035 1.36154,1.165789 1.72774,2.272534 1.30681,3.949616 -0.41587,1.657005 -0.14988,2.496863 0.92091,2.907767 1.15047,0.441477 1.50569,1.901292 1.50569,6.187831 0,5.056307 0.32388,5.988419 3.28125,9.443446 1.80469,2.108372 3.28125,4.390279 3.28125,5.070905 0,0.680625 -0.42188,1.237501 -0.9375,1.237501 -0.51563,0 -0.9375,1.588613 -0.9375,3.530252 0,1.941638 -0.7763,4.977746 -1.72511,6.746916 -0.94882,1.76916 -2.21444,3.37977 -2.8125,3.57912 -0.59806,0.19935 -1.08897,-0.41098 -1.0909,-1.35629 -0.003,-1.25475 -0.47829,-0.94015 -1.76223,1.16536 -0.96731,1.58626 -1.78273,4.622612 -1.81205,6.747442 -0.0293,2.12483 -0.50195,4.70158 -1.05026,5.72613 -0.54833,1.02454 -0.99695,5.69154 -0.99695,10.37112 0,7.348149 -0.25567,8.727189 -1.875,10.113719 -1.03125,0.88298 -1.875,1.96959 -1.875,2.41469 0,0.4451 -1.47656,3.80649 -3.28125,7.46976 -1.80469,3.66327 -3.28125,7.25486 -3.28125,7.98132 0,0.72646 -0.69091,2.77681 -1.53534,4.55633 -1.2037,2.5366 -1.31185,3.72604 -0.50066,5.5064 0.56907,1.24899 2.63108,2.94835 4.58222,3.77635 1.95115,0.828 5.44597,1.83831 7.76628,2.24512 2.32031,0.40682 5.31344,1.18225 6.65139,1.72319 1.33796,0.54094 3.03043,1.54621 3.76103,2.23392 0.73061,0.68771 4.38201,3.29917 8.11423,5.80325 6.19535,4.15666 6.78585,4.8297 6.78585,7.73437 l 0,3.18152 z m 27.656252,-7.70809 c 3.46133,-0.0353 3.35308,-0.10748 -1.40625,-0.93781 -2.83594,-0.49477 -5.69317,-1.06259 -6.34939,-1.26182 -0.65623,-0.19924 -1.47468,-1.1101 -1.81878,-2.02414 -0.34411,-0.91404 -4.63738,-6.06165 -9.54059,-11.43914 -4.903202,-5.37748 -10.729282,-11.54064 -12.946832,-13.69589 -2.87942,-2.79854 -4.04157,-4.69338 -4.06573,-6.62901 -0.0281,-2.25446 -0.32852,-1.89167 -1.78588,2.15685 -0.96363,2.67697 -2.03146,5.31928 -2.37295,5.87183 -0.34149,0.55254 0.44484,3.33251 1.74741,6.17769 1.30257,2.84519 4.7275,7.64643 7.61095,10.66942 3.01137,3.15712 6.31949,5.70539 7.77284,5.98752 1.391606,0.27013 6.327082,1.54225 10.967702,2.82694 4.64063,1.28469 10.125,2.31859 12.1875,2.29756 z m -1.15027,-3.59246 c 2.69515,-0.0278 8.14109,-0.39083 12.10208,-0.80672 4.41612,-0.46369 7.76903,-1.32339 8.66824,-2.2226 0.80653,-0.80653 1.88993,-2.58034 2.40756,-3.94181 0.51762,-1.36145 0.94114,-3.91198 0.94114,-5.66781 0,-1.75585 1.05469,-5.49823 2.34375,-8.31641 1.28906,-2.81817 2.34375,-5.70252 2.34375,-6.40966 0,-0.70712 1.47526,-4.21463 3.27836,-7.79444 1.8031,-3.57981 3.27966,-7.02125 3.28125,-7.64764 0.002,-0.62639 0.84664,-1.59045 1.87789,-2.14236 1.61872,-0.86632 1.875,-1.96296 1.875,-8.023339 l 0,-7.01987 -2.26727,1.48557 c -1.24699,0.81706 -3.92485,1.50844 -5.95081,1.5364 -2.02595,0.0279 -4.59161,-0.23737 -5.70148,-0.58963 -1.67394,-0.53129 -2.01228,-0.27011 -1.98472,1.53208 0.0183,1.19491 0.63614,3.22724 1.37303,4.51629 0.73689,1.28906 1.35476,4.724399 1.37302,7.634069 0.025,3.98066 -0.33389,5.4312 -1.4497,5.85938 -0.8156,0.31298 -2.9585,0.56905 -4.76198,0.56905 -3.18337,0 -3.26033,0.0853 -2.63694,2.92358 0.49122,2.23652 0.34348,2.82541 -0.62864,2.50583 -0.69891,-0.22976 -1.40127,-1.5145 -1.56078,-2.85498 -0.15952,-1.34047 -0.96416,-2.99543 -1.78809,-3.6777 -0.82393,-0.68226 -2.75176,-1.24048 -4.28406,-1.24048 -1.5323,0 -3.21557,-0.67298 -3.74059,-1.49552 -0.52503,-0.82254 -0.67349,-2.61551 -0.32993,-3.98437 0.50126,-1.99716 1.17677,-2.48886 3.4193,-2.48886 1.53705,0 2.79464,0.42188 2.79464,0.9375 0,0.51563 -0.79862,0.9375 -1.7747,0.9375 -0.97608,0 -2.0017,0.59157 -2.27915,1.31459 -0.27746,0.72303 -0.25227,1.56678 0.056,1.875 0.30822,0.30823 1.67507,0.56041 3.03747,0.56041 1.36238,0 3.29598,0.6194 4.29687,1.37644 1.00089,0.75703 2.94547,1.38984 4.32126,1.40625 1.3758,0.0164 3.16876,-0.22626 3.98437,-0.53924 0.9865,-0.37856 1.47181,-1.71237 1.4497,-3.98438 -0.0183,-1.87842 -0.63615,-4.47001 -1.37304,-5.75907 -0.73689,-1.289059 -1.3688,-4.242179 -1.40422,-6.562489 -0.0409,-2.67557 -0.7081,-4.99034 -1.82412,-6.32812 -0.96784,-1.16016 -2.32489,-2.10671 -3.01568,-2.10345 -0.69079,0.003 -1.97464,1.26888 -2.853,2.8125 -0.87836,1.54361 -2.14399,2.80658 -2.8125,2.8066 -0.66851,1e-5 -2.36461,1.44022 -3.76911,3.20046 -1.4045,1.76024 -4.0904,3.7076 -5.96868,4.3275 -1.87828,0.61988 -5.06915,0.9052 -7.09084,0.63403 -2.02168,-0.27117 -5.10957,-1.58663 -6.86198,-2.92323 -1.75239,-1.33662 -3.70324,-3.86013 -4.3352,-5.60779 -1.08113,-2.98981 -1.45859,-3.20801 -6.388102,-3.69276 -2.88148,-0.28335 -6.39922,-0.80018 -7.81719,-1.14851 -2.17483,-0.53424 -2.57813,-0.33513 -2.57813,1.27286 0,1.04839 0.48976,2.06941 1.08836,2.26895 0.78775,0.26258 0.65829,1.62494 -0.46875,4.93263 -0.85644,2.51341 -1.55714,4.69237 -1.55714,4.84215 0,0.14978 0.67539,0.0131 1.50087,-0.30361 0.82548,-0.31676 1.8737,0.0128 2.32939,0.73254 0.45569,0.719669 0.82004,2.574119 0.80967,4.120989 -0.0104,1.54688 -0.62178,3.86719 -1.35868,5.15625 -0.73689,1.28906 -1.35476,3.9711 -1.37303,5.96007 -0.0301,3.28062 0.6952,4.36849 7.81347,11.71875 4.315686,4.45634 9.483652,10.00087 11.484372,12.32118 2.00073,2.32031 4.08909,4.64063 4.64079,5.15625 0.5517,0.51563 1.72158,2.09766 2.59973,3.51563 1.42055,2.29379 2.13709,2.57254 6.4969,2.52757 z m 13.27447,-17.76195 c -6.18653,0 -7.90587,-0.32158 -9.1664,-1.71444 -0.85336,-0.94295 -1.55155,-3.05233 -1.55155,-4.6875 0,-2.54626 -0.33646,-2.97306 -2.34375,-2.97306 -1.28906,0 -2.33946,-0.31641 -2.33422,-0.70312 0.006,-0.38672 1.77181,-1.44385 3.9257,-2.34916 2.76562,-1.16245 4.10558,-1.33958 4.56085,-0.60292 0.39283,0.63559 1.75845,0.7985 3.49547,0.41699 1.73201,-0.38042 3.59698,-0.16013 4.75217,0.5613 1.60244,1.00073 2.19866,0.91842 3.79201,-0.52355 1.51581,-1.37179 2.73425,-1.58447 6.14619,-1.07282 2.34057,0.351 4.25558,1.03419 4.25558,1.51822 0,0.48403 -0.84375,0.88006 -1.875,0.88006 -1.59367,0 -1.875,0.625 -1.875,4.16559 0,3.24183 -0.46206,4.48922 -2.0836,5.625 -1.47065,1.03008 -4.32373,1.45941 -9.69845,1.45941 z m -0.76207,-6.5625 c 2.21012,0 5.06972,-0.47902 6.35469,-1.06448 1.28495,-0.58547 2.57522,-1.68713 2.86724,-2.44814 0.40363,-1.05183 0.13497,-1.1926 -1.1203,-0.58696 -0.9082,0.43816 -4.28798,0.70153 -7.51063,0.58525 -4.33586,-0.15644 -5.85938,0.11045 -5.85938,1.02646 0,0.68083 0.28125,1.51912 0.625,1.86287 0.34375,0.34375 2.43327,0.625 4.64338,0.625 z M 79.312458,99.318091 c 0.90234,0.0191 1.64062,-0.5981 1.64062,-1.37154 0,-0.77344 0.42188,-1.40624 0.9375,-1.40624 0.51563,0 0.9375,-1.05469 0.9375,-2.34375 0,-1.37051 -0.53854,-2.34375 -1.29691,-2.34375 -0.71329,0 -1.51755,-0.84375 -1.78723,-1.875 -0.27786,-1.06254 -1.23925,-1.84293 -2.21871,-1.80099 -0.98605,0.0422 -1.22508,0.27711 -0.55652,0.54688 0.64453,0.26007 1.17187,0.85958 1.17187,1.33224 0,0.47265 -0.84375,0.85937 -1.875,0.85937 -1.5625,0 -1.875,-0.625 -1.875,-3.75 0,-2.64007 0.39985,-3.75 1.35092,-3.75 0.74301,0 1.65116,0.48579 2.01811,1.07952 0.47883,0.77477 0.95761,0.68627 1.69595,-0.31346 0.56582,-0.76613 2.15842,-1.67417 3.53909,-2.01786 1.56025,-0.38839 2.97949,-0.16825 3.75,0.58165 0.68183,0.6636 2.97613,1.71867 5.09845,2.3446 2.12232,0.62593 5.39185,1.13805 7.26563,1.13805 2.721642,0 3.406852,-0.35812 3.406852,-1.7806 0,-1.39297 -0.86737,-1.88724 -3.984372,-2.27049 -2.19141,-0.26945 -6.30469,-0.93208 -9.14063,-1.47252 -2.83594,-0.54043 -6.9626,-1.66809 -9.17035,-2.50589 -2.20776,-0.837812 -4.73901,-1.242222 -5.625,-0.898692 -1.48377,0.575312 -1.46728,0.730302 0.20891,1.963902 1.0009,0.73661 3.53215,1.39916 5.625,1.47233 l 3.80519,0.13303 -3.75,0.59308 c -2.28324,0.3611 -4.48338,0.15564 -5.625,-0.52529 -1.03125,-0.61509 -2.92969,-1.25825 -4.21875,-1.42923 -2.15923,-0.2864 -2.36712,0.0168 -2.64068,3.85052 -0.17487,2.45077 0.32879,5.53381 1.22524,7.5 0.83719,1.83623 3.08018,4.48314 4.98443,5.88202 1.90424,1.39886 4.20054,2.55902 5.10289,2.57811 z m 37.077802,-0.90629 c 1.70139,0.002 4.23264,-0.58922 5.625,-1.31367 1.39237,-0.72444 3.53915,-2.39579 4.77064,-3.71409 1.69731,-1.81697 2.34379,-3.77063 2.67187,-8.07437 0.42532,-5.57918 0.36924,-5.74102 -3.23985,-9.350102 -2.01995,-2.01996 -4.8071,-3.95738 -6.19366,-4.30538 -1.38655,-0.34801 -4.05867,-0.34427 -5.93804,0.008 -2.17382,0.40781 -4.72972,1.96692 -7.02508,4.28533 -3.29108,3.324142 -3.60806,4.089402 -3.60806,8.710712 0,3.7729 0.51732,5.72408 2.02622,7.64234 1.11442,1.41675 3.32927,3.37051 4.92187,4.34167 1.59262,0.97116 4.28771,1.76733 5.98909,1.76926 z m 0,-1.87499 c -1.18576,-0.002 -3.5041,-0.82554 -5.15187,-1.83025 -1.64776,-1.0047 -3.7056,-2.90983 -4.57298,-4.23361 -1.13071,-1.72568 -1.44119,-3.61216 -1.09701,-6.66563 0.29595,-2.62571 1.2935,-5.12466 2.60146,-6.516922 1.16679,-1.242 3.53597,-2.72501 5.26483,-3.29559 2.31833,-0.76512 3.99658,-0.75583 6.39396,0.0354 1.78781,0.59004 4.31906,2.34262 5.625,3.894642 1.7331,2.05968 2.37443,3.90774 2.37443,6.84224 0,2.65749 -0.66368,4.86412 -1.95778,6.5093 -1.07678,1.3689 -3.1652,3.1133 -4.64095,3.87643 -1.47573,0.76314 -3.65333,1.38594 -4.83909,1.38402 z m 37.48002,-4.74512 c 1.6904,-0.38 3.69431,-1.20617 4.45313,-1.83594 0.75882,-0.62976 1.37967,-1.5742 1.37967,-2.09875 0,-0.52455 0.62391,-1.42212 1.38646,-1.99459 0.76255,-0.57247 1.40797,-2.30647 1.43424,-3.85335 0.0263,-1.54687 -0.22139,-4.16833 -0.55038,-5.825472 -0.37042,-1.86575 -1.7851,-3.91828 -3.71545,-5.39062 -2.38275,-1.81741 -4.22915,-2.37766 -7.83606,-2.37766 -4.1514,0 -5.11711,0.39831 -8.03131,3.3125 -2.03476,2.03476 -3.35534,4.29492 -3.42358,5.85938 -0.0611,1.400782 -0.0422,3.179682 0.0421,3.953122 0.0843,0.77344 0.60507,2.56105 1.15738,3.97246 2.12566,4.230654 1.91466,0.134465 1.10726,-1.83849 -1.17328,-2.80805 -1.24051,-4.12103 -0.36129,-7.055612 0.71316,-2.38034 2.09825,-4.22624 4.07605,-5.43219 1.6477,-1.00466 4.26144,-1.82666 5.80831,-1.82666 1.54688,0 4.1401,0.80952 5.76273,1.79894 1.78492,1.08838 3.38741,3.12365 4.05708,5.15274 0.82641,2.504072 0.84196,4.156452 0.0613,6.521702 -0.57502,1.74234 -1.82105,3.86975 -2.76893,4.72757 -0.94789,0.85783 -3.22505,1.80337 -5.06037,2.1012 -1.83531,0.29783 -4.62983,0.0908 -6.21002,-0.46006 -9.5124,-6.363361 -3.67879,1.274188 -0.29491,2.24629 1.41797,0.31274 3,0.67342 3.51563,0.80151 0.51562,0.12809 2.32056,-0.078 4.01095,-0.45802 z m -21.3547,-3.22013 c 1.03125,-0.93327 1.875,-2.26428 1.875,-2.9578 0,-0.69352 0.84375,-1.26095 1.875,-1.26095 1.03125,0 1.875,-0.42187 1.875,-0.9375 0,-0.51562 -1.04385,-0.9375 -2.31968,-0.9375 -1.62054,0 -2.75076,0.83364 -3.75,2.76595 -0.78667,1.52126 -1.43032,3.27415 -1.43032,3.8953 0,0.69164 0.7267,0.47169 1.875,-0.5675 z m -0.40178,-5.55803 c 0.81026,-0.81027 2.49776,-1.47322 3.75,-1.47322 1.25222,0 2.22682,-0.3164 2.16576,-0.70312 -0.061,-0.38672 -0.061,-1.91292 0,-3.391552 0.0741,-1.79391 1.3584,-3.9358 3.86001,-6.4374 3.7256,-3.725612 3.78698,-3.746567 9.84375,-3.360901 l 6.09476,0.388081 0,-3.483376 c 0,-1.91586 -0.21535,-4.045228 -0.47857,-4.731932 -0.36931,-0.9635 -3.02923,-1.190372 -11.65078,-0.993723 -6.87521,0.156816 -11.39992,-0.113616 -11.76426,-0.703125 -0.32562,-0.526874 -1.78764,-0.957952 -3.24892,-0.957952 -1.49682,0 -2.89248,0.613997 -3.1965,1.40625 -0.29679,0.773437 -1.60755,1.40625 -2.9128,1.40625 -1.90638,0 -2.37317,-0.461001 -2.37317,-2.34375 0,-1.289063 -0.31641,-2.33729 -0.70312,-2.329394 -0.38672,0.0079 -1.20408,0.332887 -1.81636,0.722205 -0.61227,0.389317 -1.55104,1.85942 -2.08617,3.266894 -0.76367,2.008596 -1.5829,2.559045 -3.80865,2.559045 -1.67487,0 -2.8357,-0.489863 -2.8357,-1.196649 0,-0.820515 -1.12148,-1.0897 -3.5679,-0.856395 -2.44056,0.232744 -3.95792,-0.129702 -4.80229,-1.147102 -0.67892,-0.818045 -1.80071,-1.487354 -2.49288,-1.487354 -0.692156,0 -1.747902,0.949219 -2.346102,2.109375 -0.5982,1.160156 -1.9104,3.014088 -2.91599,4.119847 -1.19104,1.309685 -1.47699,2.227624 -0.82035,2.633454 0.55441,0.342639 1.00801,2.341132 1.00801,4.441092 l 0,3.81811 -3.75438,-0.50357 c -3.35674,-0.45023 -3.81291,-0.27036 -4.30701,1.69828 -0.30394,1.21101 -0.27707,2.647702 0.0597,3.192632 0.33679,0.54493 2.03911,0.99078 3.78293,0.99078 1.74383,0 3.43133,0.42188 3.75,0.9375 0.31868,0.51563 2.17429,0.9375 4.1236,0.9375 2.896732,0 3.744792,-0.44028 4.642322,-2.41015 1.00524,-2.206252 0.93866,-2.359532 -0.78702,-1.811822 -1.3412,0.42568 -1.88515,0.17433 -1.88515,-0.8711 0,-0.9216 0.82977,-1.46943 2.22567,-1.46943 1.22411,0 4.20523,-1.1064 6.6247,-2.45866 3.47206,-1.94058 5.25684,-2.36198 8.46995,-1.99981 2.23901,0.25236 5.33473,1.35876 6.8794,2.45866 1.6149,1.14991 4.24108,1.99981 6.17938,1.99981 1.854,0 3.3709,0.42188 3.3709,0.9375 0,0.51563 -1.28047,0.9375 -2.84548,0.9375 -2.52274,0 -2.73541,0.20568 -1.875,1.813372 0.53376,0.99735 0.97048,2.71499 0.97048,3.81696 0,1.82145 0.13393,1.86967 1.47322,0.53039 z M 84.547138,76.078509 c 0.17205,-1.37882 0.97571,-3.24523 1.78593,-4.14757 0.81021,-0.90235 2.25148,-1.64063 3.20281,-1.64063 0.95134,0 1.7297,0.42188 1.7297,0.9375 0,0.51563 0.42188,0.9375 0.9375,0.9375 0.51563,0 0.9375,-1.09418 0.9375,-2.43152 0,-1.64307 -0.60798,-2.590506 -1.875,-2.921838 -1.03125,-0.269678 -1.875,-1.082977 -1.875,-1.807331 0,-0.724353 0.94922,-1.750281 2.10938,-2.279839 1.16015,-0.529558 3.06247,-2.418951 4.22736,-4.198651 1.60043,-2.445088 2.77512,-3.235819 4.807082,-3.235819 1.47901,0 3.21428,0.632812 3.85618,1.40625 0.6419,0.773437 1.74824,1.40625 2.45854,1.40625 0.7103,0 1.29146,-0.632813 1.29146,-1.40625 0,-0.773438 0.60219,-1.40625 1.33821,-1.40625 0.73601,0 2.16782,1.054687 3.1818,2.34375 1.01398,1.289062 2.09928,2.34375 2.41179,2.34375 0.31251,0 0.5682,-0.819828 0.5682,-1.82184 0,-1.002012 0.93762,-2.478575 2.0836,-3.28125 1.14597,-0.802675 3.04441,-1.45941 4.21875,-1.45941 1.69669,0 2.14155,0.529422 2.16634,2.578125 l 0.0312,2.578125 1.65112,-1.975286 c 1.24293,-1.486934 2.39411,-1.866241 4.65632,-1.534219 2.32243,0.340865 3.00515,0.09742 3.00515,-1.07159 0,-0.83196 0.68199,-1.512655 1.51554,-1.512655 1.11105,0 1.39596,0.625531 1.06751,2.34375 -0.34752,1.817912 -0.0583,2.34375 1.28901,2.34375 0.95538,0 2.26398,-0.84375 2.90801,-1.875 0.64402,-1.03125 1.49135,-1.875 1.88295,-1.875 0.39159,0 0.71198,0.84375 0.71198,1.875 0,1.03125 0.39174,1.875 0.87053,1.875 0.4788,0 1.54433,-0.673788 2.36785,-1.497307 0.82352,-0.823518 2.0138,-1.248078 2.64509,-0.943467 0.63127,0.304612 1.8507,1.059405 2.70982,1.677317 1.22621,0.881934 1.88376,0.856475 3.05844,-0.118418 1.14167,-0.947503 1.2442,-1.545766 0.43254,-2.523762 -0.58512,-0.705024 -1.64501,-1.281863 -2.35531,-1.281863 -0.7103,0 -1.29146,-0.421875 -1.29146,-0.9375 0,-0.515625 1.02979,-0.9375 2.28842,-0.9375 1.25863,0 2.62691,0.527344 3.04063,1.171875 0.41371,0.644531 1.26374,3.070312 1.88895,5.390625 0.62521,2.320312 1.15537,6.381938 1.17813,9.025833 0.0275,3.192085 0.53782,5.219105 1.51908,6.033465 1.22464,1.01637 1.62354,0.99589 2.32938,-0.11958 0.46844,-0.74028 0.85816,-2.08425 0.86606,-2.98659 0.008,-0.90235 0.25302,-1.640628 0.54473,-1.640628 0.29171,0 1.35039,0.438848 2.35261,0.975228 1.53278,0.82031 1.96974,0.58724 2.75087,-1.467282 0.51075,-1.34338 0.87119,-3.5752 0.80097,-4.959602 -0.11207,-2.209475 -0.17733,-2.259303 -0.53395,-0.407719 -0.34842,1.80896 -0.99783,2.109375 -4.55983,2.109375 -2.28446,0 -4.15355,-0.421875 -4.15355,-0.9375 0,-0.515625 1.50146,-0.9375 3.33658,-0.9375 2.11489,0 3.11134,-0.364439 2.72143,-0.995328 -0.33833,-0.54743 -1.62886,-1.380739 -2.86783,-1.851796 -1.79051,-0.680753 -2.25268,-1.534419 -2.25268,-4.160922 0,-1.81745 0.42187,-3.304454 0.9375,-3.304454 0.51562,0 0.9375,1.043854 0.9375,2.319675 0,1.594192 0.82365,2.745602 2.63356,3.681543 1.44847,0.749028 3.13701,1.050725 3.75231,0.670441 0.77541,-0.479226 0.25488,-1.519075 -1.69605,-3.388191 -2.53602,-2.429651 -2.81482,-3.273038 -2.81482,-8.514814 0,-4.306765 -0.36529,-5.958223 -1.40625,-6.357678 -0.8755,-0.335963 -1.40625,-1.765298 -1.40625,-3.787127 0,-2.449936 -0.47173,-3.397219 -1.92079,-3.857132 -1.68935,-0.536181 -1.84596,-1.108589 -1.2998,-4.750676 0.59961,-3.998488 0.53664,-4.141041 -1.82922,-4.141041 -2.09744,0 -2.45019,-0.404917 -2.45019,-2.8125 0,-2.1875 -0.41666,-2.8125 -1.875,-2.8125 -1.44271,0 -1.875,-0.625 -1.875,-2.710868 0,-2.109726 -0.51973,-2.841312 -2.34375,-3.299111 -1.72292,-0.432424 -2.34375,-1.212897 -2.34375,-2.9464231 0,-2.287724 -0.14004,-2.339601 -4.6875,-1.73636 -3.81803,0.50648 -4.6875,0.360979 -4.6875,-0.784432 0,-0.979632 -1.42238,-1.594934 -4.68854,-2.028206 -2.71477,-0.360126 -5.45149,-0.213638 -6.50087,0.347971 -0.99678,0.53346 -3.08078,0.969928 -4.63113,0.969928 -1.55034,0 -3.03735,-0.353609 -3.30445,-0.785798 -0.26711,-0.432189 -2.87878,-0.461044 -5.80371,-0.06412 -2.92493,0.396921 -5.76878,1.172406 -6.31967,1.723298 -0.5509,0.550892 -1.97194,1.001623 -3.15788,1.001623 -1.29167,0 -2.15625,-0.56386 -2.15625,-1.406251 0,-0.967635 -0.97085,-1.40625 -3.112662,-1.40625 -2.4266,0 -3.68215,0.714288 -5.69651,3.240772 -1.42112,1.782424 -3.39584,3.4984861 -4.38827,3.8134711 -1.50672,0.478214 -1.71104,1.156659 -1.23843,4.112213 0.54365,3.399757 0.3964,3.646804 -3.72917,6.256839 -2.36235,1.49453 -4.69177,3.77553 -5.1765,5.068891 -0.48474,1.293361 -1.74783,5.332364 -2.80687,8.975562 -1.05905,3.643198 -2.6753,7.479511 -3.59169,8.525139 -0.91638,1.045628 -2.93177,2.316069 -4.47865,2.823201 -2.22938,0.73089 -2.87341,1.538798 -3.10627,3.896737 -0.22053,2.233053 0.0832,2.974676 1.21822,2.974676 1.19485,0 1.48798,0.934059 1.39753,4.453125 -0.063,2.449219 0.16388,5.354731 0.50408,6.456695 0.34234,1.108923 0.16345,2.284829 -0.40063,2.633456 -0.56055,0.34643 -1.01918,1.61047 -1.01918,2.80896 0,1.39064 0.67842,2.35649 1.875,2.6694 1.03125,0.26968 1.875,1.1175 1.875,1.88404 0,0.76655 0.6193,1.63137 1.37623,1.92182 0.75692,0.29046 1.62557,0.12466 1.93033,-0.36844 0.30475,-0.49311 1.53545,-0.89656 2.73489,-0.89656 1.19943,0 3.60031,0.60079 5.33529,1.33508 3.10745,1.315152 3.15918,1.297672 3.46732,-1.17188 z m -3.1649,-8.600698 c -0.64133,0 -1.42213,-0.667316 -1.73511,-1.482925 -0.31297,-0.81561 -0.56905,-2.924985 -0.56905,-4.6875 0,-1.762516 -0.42187,-3.204575 -0.9375,-3.204575 -0.51562,0 -0.9375,-0.678548 -0.9375,-1.507882 0,-1.107569 0.57542,-1.363462 2.16746,-0.963885 1.73595,0.435694 3.17605,-0.477285 7.2336,-4.585868 2.78638,-2.821426 5.6079,-5.129865 6.27004,-5.129865 0.66215,0 1.2039,0.126434 1.2039,0.280965 0,0.154531 -2.42578,2.8985 -5.39062,6.097707 -2.96485,3.199208 -5.91797,5.814961 -6.5625,5.812784 -0.71123,-0.0024 -1.17188,1.264118 -1.17188,3.221966 0,1.774257 0.34622,3.439892 0.76936,3.701414 0.42315,0.26152 2.15823,-0.369128 3.85574,-1.401441 1.6975,-1.032313 3.25965,-1.703644 3.47145,-1.491847 0.2118,0.211798 0.1304,1.048802 -0.18089,1.860011 -0.31129,0.811208 -1.86074,1.926277 -3.44322,2.477932 -1.58248,0.551655 -3.40195,1.003009 -4.04328,1.003009 z m -6.72961,-0.9375 c -2.16193,0 -2.29691,-0.243669 -1.68778,-3.046875 0.36414,-1.675781 0.8686,-5.896787 1.12103,-9.380012 0.39614,-5.466332 0.84321,-6.717392 3.26644,-9.140625 1.54412,-1.544119 2.98598,-2.807488 3.20413,-2.807488 0.21815,0 0.39663,0.784657 0.39663,1.743682 0,0.959025 -1.05469,2.535719 -2.34375,3.503764 -2.09188,1.570936 -2.34375,2.435461 -2.34375,8.04474 0,3.456562 -0.42187,6.54539 -0.9375,6.864064 -0.51562,0.318674 -0.9375,1.02804 -0.9375,1.576371 0,0.621649 0.53792,0.550529 1.42891,-0.188923 0.7859,-0.652238 1.63958,-0.975214 1.89707,-0.717725 0.25748,0.257489 0.20215,1.161356 -0.12296,2.008594 -0.33077,0.861973 -1.62608,1.540433 -2.94097,1.540433 z M 111.18746,54.183913 c -0.90235,-0.0929 -4.80469,-0.4093 -8.67188,-0.703125 l -7.031252,-0.534227 -0.27129,-7.67288 -0.27129,-7.672878 -4.74306,1.408533 c -2.60868,0.774694 -4.82372,1.274365 -4.92231,1.11038 -0.0986,-0.163986 -0.0223,-2.87908 0.16949,-6.033544 0.30638,-5.03861 0.79497,-6.275377 4.02173,-10.180203 2.02014,-2.444648 3.67298,-4.820755 3.67298,-5.280237 0,-0.459482 0.42188,-0.835421 0.9375,-0.835421 0.51563,0 0.9375,0.673545 0.9375,1.496766 0,0.823221 -1.6875,3.413867 -3.75,5.75699 -3.14997,3.578559 -3.75,4.914136 -3.75,8.346985 0,2.247717 0.22449,4.086759 0.49886,4.086759 0.27438,0 1.96188,-0.611286 3.75,-1.358412 1.78813,-0.747128 3.25114,-1.967617 3.25114,-2.712199 0,-0.744581 0.6932,-1.619789 1.54044,-1.944905 0.84723,-0.325115 1.7592,-0.372347 2.02659,-0.104958 0.26738,0.267388 -0.0315,2.070286 -0.66413,4.006441 -0.63267,1.936156 -1.01729,6.262471 -0.85472,9.614033 0.28274,5.829138 0.40492,6.10638 2.813726,6.38461 2.292576,0.264802 2.544546,-0.02268 2.812506,-3.208782 0.16452,-1.956008 0.87394,-3.690347 1.60838,-3.931998 0.94565,-0.311147 1.16737,0.12848 0.79089,1.568157 -0.47563,1.818831 -0.14797,2.000513 3.60784,2.000513 4.09612,0 4.13098,0.02769 4.13098,3.28125 0,2.564342 -0.35845,3.244348 -1.64062,3.112352 z m -3.10221,-2.643602 c 1.5773,0 2.86783,-0.421875 2.86783,-0.9375 0,-0.515625 -1.02979,-0.9375 -2.28842,-0.9375 -1.25863,0 -2.54915,0.421875 -2.86783,0.9375 -0.33804,0.546959 0.61526,0.9375 2.28842,0.9375 z m 19.50845,-2.984604 c -1.41796,0.163156 -2.57812,-0.153251 -2.57812,-0.703125 0,-0.549874 0.84375,-0.999771 1.875,-0.999771 1.03125,0 1.8724,-0.527344 1.86922,-1.171875 -0.003,-0.644531 -0.63599,-2.380254 -1.40624,-3.857163 -0.77026,-1.476908 -1.40048,-3.480815 -1.40048,-4.453125 0,-0.97231 0.32235,-1.767837 0.71634,-1.767837 0.39399,0 1.47137,1.742766 2.39417,3.872813 0.92281,2.130046 1.54967,4.977703 1.39303,6.328125 -0.2197,1.894154 -0.87402,2.52311 -2.86292,2.751958 z m 14.0625,-0.766449 c -1.16015,-5.79e-4 -3.28113,-1.160735 -4.71328,-2.578125 -1.43215,-1.41739 -3.66785,-3.842697 -4.96822,-5.389572 -1.68304,-2.002072 -2.27352,-3.661472 -2.04922,-5.758762 0.21917,-2.049253 -0.19098,-3.262323 -1.34718,-3.984376 -0.91425,-0.570961 -2.30082,-1.038112 -3.08125,-1.038112 -0.78043,0 -1.41897,-0.421875 -1.41897,-0.9375 0,-0.515625 1.24072,-0.9375 2.75717,-0.9375 1.51644,0 3.0179,0.421875 3.33658,0.9375 0.31868,0.515625 0.97639,0.9375 1.46158,0.9375 0.48519,0 0.88217,-0.421875 0.88217,-0.9375 0,-0.515625 -0.60439,-0.9375 -1.34307,-0.9375 -0.7387,0 -1.61087,-0.84375 -1.93818,-1.875 -0.36596,-1.15304 -1.41847,-1.875 -2.73347,-1.875 -1.62425,0 -2.49251,-0.901588 -3.6114,-3.75 -1.1885,-3.02561 -1.94036,-3.75 -3.89221,-3.75 -1.33055,0 -2.41917,-0.421875 -2.41917,-0.9375 0,-0.515625 1.48561,-0.9375 3.30135,-0.9375 2.5494,0 3.49294,0.480455 4.14248,2.109375 0.46262,1.160156 1.14026,2.953125 1.50586,3.984375 0.57326,1.616948 0.78446,1.442222 1.53464,-1.269546 0.47844,-1.729501 0.74098,-4.471688 0.58341,-6.09375 -0.25011,-2.574677 -0.61389,-2.9267901 -2.86461,-2.7727071 -1.74414,0.1194021 -2.57813,-0.277992 -2.57813,-1.228468 0,-1.050242 0.88762,-1.331501 3.51563,-1.113997 l 3.51562,0.290968 0,6.3297991 c 0,3.481391 0.31641,6.329047 0.70312,6.328125 0.38672,-9.2e-4 0.70313,0.831242 0.70313,1.849251 0,1.108383 1.1283,2.434391 2.8125,3.305325 1.54687,0.79992 2.8125,2.04795 2.8125,2.773399 0,0.725449 -0.80181,1.573484 -1.7818,1.88452 -0.97999,0.311037 -2.04388,1.609728 -2.3642,2.885981 -0.40461,1.612081 0.0621,3.192144 1.5287,5.175864 1.1611,1.570472 3.49061,3.907617 5.17669,5.193655 l 3.06561,2.338253 0,-3.328962 c 0,-2.334076 -0.42027,-3.32896 -1.40625,-3.32896 -0.77344,0 -1.40625,-0.421875 -1.40625,-0.9375 0,-0.515625 1.05469,-0.9375 2.34375,-0.9375 2.21591,0 2.34375,0.28125 2.34375,5.15625 0,4.722534 -0.17743,5.156162 -2.10938,5.155197 z m 17.03907,0.0011 c -0.34805,0 -0.86684,-1.170158 -1.15288,-2.600349 -0.38434,-1.921693 -1.39363,-2.91623 -3.86719,-3.810683 -1.84091,-0.665683 -3.34712,-1.6049 -3.34712,-2.08715 0,-0.482251 0.61998,-0.876818 1.37773,-0.876818 0.75775,0 2.89602,0.852771 4.75171,1.895046 l 3.37397,1.895045 -0.29858,-2.503612 c -0.16422,-1.376987 -1.11996,-2.968039 -2.12387,-3.535671 -1.00391,-0.567632 -2.90234,-1.985932 -4.21875,-3.151779 -1.3164,-1.165846 -3.09284,-2.342085 -3.94764,-2.613865 -0.8548,-0.271778 -2.43683,-2.3719 -3.51562,-4.666936 -1.0788,-2.295036 -1.96145,-4.986637 -1.96145,-5.981335 0,-0.994698 0.25607,-2.475858 0.56905,-3.291468 0.31298,-0.815609 1.15673,-1.482925 1.875,-1.482925 0.71827,0 1.30595,0.216662 1.30595,0.481471 0,0.264809 -0.50163,1.284711 -1.11473,2.266451 -0.89416,1.431763 -0.78371,2.5191 0.55816,5.494843 0.95894,2.126548 3.494,5.060344 5.93988,6.874174 2.34684,1.740371 5.25896,3.797123 6.47141,4.570561 1.83711,1.171932 2.2047,2.195122 2.2061,6.140625 9.3e-4,2.603906 -0.50457,5.240625 -1.12332,5.859375 -0.61875,0.61875 -1.40977,1.125 -1.75781,1.125 z m -36.25781,-3.803807 c -1.41797,-0.0296 -4.0373,-0.867547 -5.82074,-1.862118 -1.78342,-0.994571 -3.68186,-1.977289 -4.21875,-2.183821 -0.53687,-0.20653 0.45243,-1.602582 2.19846,-3.102338 2.85033,-2.448296 3.05006,-2.926233 1.95544,-4.679001 -0.99901,-1.599673 -1.00007,-2.734641 -0.006,-6.285543 0.66741,-2.383402 1.58043,-4.333419 2.02905,-4.333419 0.44861,0 0.81566,0.319192 0.81566,0.709314 0,0.390123 -0.4178,2.166079 -0.92843,3.946568 -0.61291,2.13709 -0.61291,3.552776 0,4.165685 0.51063,0.510639 0.92843,2.058027 0.92843,3.438641 0,1.380615 -0.67612,3.071344 -1.5025,3.757175 -1.36046,1.129073 -1.30632,1.405833 0.5726,2.927292 1.14132,0.924179 2.6612,1.680325 3.37751,1.680325 0.71631,0 1.30239,-0.632813 1.30239,-1.40625 0,-0.773438 0.42187,-1.40625 0.9375,-1.40625 0.51563,0 0.9375,1.054687 0.9375,2.34375 0,1.944862 -0.43878,2.334592 -2.57812,2.289943 z m -15.502,-15.118264 c -1.38296,0.266335 -1.60738,-0.528016 -1.60738,-5.689518 0,-5.058601 0.34015,-6.318634 2.1698,-8.037492 1.19339,-1.121131 2.66995,-2.038419 3.28125,-2.038419 0.61129,0 1.11145,0.230114 1.11145,0.511364 0,0.28125 -1.05469,1.566051 -2.34375,2.855113 -1.35808,1.35808 -2.33771,3.410065 -2.3294,4.879262 0.011,1.929696 0.22275,2.205999 0.88653,1.156411 0.47969,-0.758504 1.16915,-1.082125 1.53211,-0.719157 0.36297,0.362968 0.26548,2.035354 -0.21664,3.716412 -0.48213,1.681058 -1.59991,3.19577 -2.48397,3.366024 z m 33.52543,0.172024 c -1.90445,0 -2.48245,-0.576346 -2.95687,-2.94843 -0.42072,-2.103562 -1.35423,-3.237014 -3.25782,-3.955536 -1.50944,-0.569748 -2.66812,-1.708077 -2.66812,-2.621241 0,-0.887775 0.42187,-1.874869 0.9375,-2.193543 0.51562,-0.318674 0.9375,-1.398259 0.9375,-2.399078 0,-1.00082 0.46803,-1.819672 1.04007,-1.819672 0.63283,0 0.89289,1.260701 0.66417,3.219808 -0.30257,2.591688 0.0172,3.398907 1.63907,4.137889 1.16162,0.529268 2.33001,2.242691 2.75887,4.045817 0.63357,2.663907 0.80205,2.814925 1.13606,1.018361 0.21569,-1.160156 0.7847,-2.109375 1.26446,-2.109375 0.47977,0 0.8723,1.265625 0.8723,2.8125 0,2.382426 -0.36198,2.8125 -2.36719,2.8125 z M 27.344698,70.290309 c 4.404263,0 5.64115,-0.39914 7.878077,-2.54225 l 2.653543,-2.54226 -0.258494,2.307882 c -0.227692,2.032868 0.07664,2.284058 2.554006,2.107938 1.615741,-0.11487 3.359807,-1.01244 4.098724,-2.109378 0.950468,-1.410992 2.308691,-1.90943 5.203124,-1.90943 2.1543,0 4.42315,-0.50625 5.0419,-1.125 0.61875,-0.61875 1.125,-1.745688 1.125,-2.504305 0,-0.758619 -0.6982,-2.150806 -1.55155,-3.09375 -1.45595,-1.608807 -1.43119,-1.714445 0.40179,-1.714445 1.07433,0 2.61628,-0.662947 3.42655,-1.473215 0.81027,-0.810267 1.47321,-2.674201 1.47321,-4.142073 0,-1.467873 0.25608,-3.336177 0.56905,-4.151787 0.31298,-0.815609 1.15673,-1.482925 1.875,-1.482925 0.76802,0 1.30595,-0.965421 1.30595,-2.34375 0,-1.289063 -0.42187,-2.34375 -0.9375,-2.34375 -0.51562,0 -0.9375,-0.421875 -0.9375,-0.9375 0,-0.515625 0.60929,-0.9375 1.35397,-0.9375 0.74469,0 2.49979,-0.985589 3.90023,-2.190198 1.46765,-1.262418 2.26062,-2.652375 1.87195,-3.28125 -0.4096,-0.66275 -3.26812,-1.091052 -7.28178,-1.091052 -5.92786,0 -6.53727,-0.168747 -5.9249,-1.640625 0.37541,-0.902344 0.89609,-3.644531 1.15708,-6.09375 l 0.47451,-4.453125 -6.15363,0 -6.153631,0 -0.293774,-3.046875 c -0.269928,-2.799562 -0.587675,-3.071002 -3.914623,-3.344116 -2.891883,-0.237398 -4.655182,0.389517 -8.758471,3.113948 -2.825691,1.876153 -5.731464,3.183308 -6.457274,2.904789 -0.725811,-0.27852 -1.319655,-1.574328 -1.319655,-2.879573 0,-1.69029 -0.502747,-2.373173 -1.747159,-2.373173 -0.960937,0 -2.867921,1.120762 -4.237742,2.490582 -1.369819,1.369821 -2.729677,3.443216 -3.021906,4.607548 -0.298492,1.189285 -1.782635,2.635275 -3.386812,3.299747 -1.570518,0.65053 -4.0650625,2.200572 -5.5434335,3.44454 -1.478371,1.243967 -2.685595,2.7516 -2.682719,3.350296 0.0029,0.598695 0.437881,2.646307 0.966679,4.550247 0.623346,2.244358 1.687563,3.69217 3.02625,4.117052 l 2.0647985,0.655342 -2.0939785,0.774613 c -1.549664,0.573258 -2.093978,1.529574 -2.093978,3.678955 0,1.597389 0.436718,3.720358 0.970485,4.71771 0.580359,1.084411 1.9578,1.813368 3.4265505,1.813368 2.354458,0 2.389311,0.07376 0.842441,1.783037 -1.086138,1.200169 -1.5167175,2.962341 -1.3171755,5.390625 l 0.2964495,3.607588 5.820311,-0.0076 c 5.585243,-0.0072 5.798728,0.07842 5.285936,2.12155 -0.293905,1.171013 -0.01373,2.756448 0.622606,3.523188 0.770662,0.92863 2.901466,1.39411 6.381515,1.39411 z m 36.96776,41.080821 c -1.16016,0.16476 -2.10938,-0.17937 -2.10938,-0.76476 0,-0.58538 0.43672,-1.88035 0.97049,-2.8777 0.53376,-0.99735 1.61647,-1.81337 2.40602,-1.81337 1.01295,0 1.34821,0.75893 1.13889,2.57813 -0.2124,1.84594 -0.89571,2.6632 -2.40602,2.8777 z m 0.70312,-1.23708 c 0.51563,-0.31868 0.9375,-1.21222 0.9375,-1.98565 0,-0.77344 -0.42187,-1.14553 -0.9375,-0.82685 -0.51562,0.31868 -0.9375,1.21222 -0.9375,1.98565 0,0.77344 0.42188,1.14553 0.9375,0.82685 z m 11.01563,0.43309 c -0.64453,-0.0196 -1.76759,-0.70781 -2.49569,-1.52934 -0.95137,-1.07343 -1.05498,-1.92062 -0.36827,-3.01121 0.52555,-0.83465 1.64861,-1.65395 2.49569,-1.82065 1.19773,-0.23574 1.54014,0.44165 1.54014,3.04687 0,2.07401 -0.44635,3.33641 -1.17187,3.31433 z m 0.0781,-2.80689 c 0.17187,-0.49909 0.17187,-1.31581 0,-1.8149 -0.20144,-0.58495 -0.81229,-0.58495 -1.71875,0 -1.25,0.80662 -1.25,1.00828 0,1.8149 0.90646,0.58495 1.51731,0.58495 1.71875,0 z m -24.76417,-0.90745 c -1.55811,0 -2.26708,-0.52772 -2.26708,-1.6875 0,-0.92812 0.50625,-2.19375 1.125,-2.8125 0.61875,-0.61875 2.30625,-1.125 3.75,-1.125 2.14371,0 2.625,0.41134 2.625,2.24345 0,1.2339 -0.66731,2.49952 -1.48292,2.8125 -0.81561,0.31298 -2.50311,0.56905 -3.75,0.56905 z m 0,-0.9375 c 0.73126,0 1.99689,-0.25607 2.8125,-0.56905 0.81561,-0.31298 1.48292,-1.15673 1.48292,-1.875 0,-0.71827 -0.59831,-1.30595 -1.32957,-1.30595 -0.73127,0 -1.99689,0.25607 -2.8125,0.56905 -0.81561,0.31298 -1.48293,1.15673 -1.48293,1.875 0,0.71827 0.59831,1.30595 1.32958,1.30595 z M 45.424991,94.665311 c -1.473916,0 -3.160658,-0.57934 -3.748313,-1.28742 -0.587657,-0.70808 -0.815008,-1.94793 -0.505224,-2.75521 0.309784,-0.80729 1.835321,-1.74719 3.390084,-2.08867 1.571205,-0.3451 3.2549,-0.19282 3.790542,0.34282 0.530038,0.53004 0.691238,2.04928 0.358229,3.37609 -0.47378,1.88769 -1.188347,2.41239 -3.285318,2.41239 z m -0.435955,-0.9375 c 1.250078,0 2.526586,-0.66117 2.836681,-1.46926 0.310095,-0.8081 0.09736,-1.93572 -0.472743,-2.50582 -0.757071,-0.75708 -1.670365,-0.74777 -3.387254,0.0345 -1.537699,0.70062 -2.160282,1.56727 -1.800129,2.50581 0.302816,0.78912 1.573365,1.43477 2.823445,1.43477 z m -3.962167,-10.3125 c -2.619714,0 -3.267559,-0.41625 -3.771245,-2.42309 -0.38583,-1.53727 -0.130724,-2.90053 0.69782,-3.729082 0.718287,-0.71829 2.671421,-1.57906 4.340297,-1.91284 2.888984,-0.5778 3.034319,-0.47021 3.034319,2.24615 0,1.569152 -0.256073,3.520332 -0.569052,4.335942 -0.363313,0.94678 -1.712652,1.48292 -3.732139,1.48292 z m 0.565681,-0.9375 c 0.912948,0 1.915979,-0.66731 2.228958,-1.48292 0.312979,-0.81561 0.569052,-2.33731 0.569052,-3.381562 0,-1.34613 -0.431526,-1.73303 -1.482925,-1.32957 -0.81561,0.31298 -2.094476,0.56905 -2.841924,0.56905 -0.747449,0 -1.603892,0.63819 -1.903207,1.418192 -0.299316,0.78 -0.02349,2.04563 0.612964,2.8125 0.636447,0.76687 1.904133,1.39431 2.817082,1.39431 z"
     id="path4146"
     inkscape:connector-curvature="0"
     sodipodi:nodetypes="ccscscsssssssssssssssssssssssssssssssssssssssssssssssscccccsssssssssssssssscssssscsssssssscsssssssscsscsssssssssssssccssssssssssscsssssssssscsscssscssssssssssssssscsssscscscssssssssssscsccsssssssssssscscsssssssssscccsssscsssssssssssssssssssssssscssssssccssssssssssccssssssssssccssscssssssssccssscsssscccssssssssssscsscssscscsssssssssssssscssssssssssssssssssscsssssssssssssssssssscssssssssssscssssssssssscsssssssssssssscssssssssssssssssscsssssssssssssssssssssssssccssssssssssssssssssssscsssssssssssscscscsssssssssssccsssssssssssssssssssssssssssssssssssssssssssssssscssssssssscsssssssssssscsssssssssssssssscsssscsssssssssssccsssssscssssssscsssssssssssscssssssssssssssssssssscccssssssssssssscssssssccscsssssssssssscsssscccsscsssssssssssssssssssssssssssssssssssssssssssss" />
  <text
     xml:space="preserve"
     style="font-style:normal;font-variant:normal;font-weight:normal;font-stretch:normal;font-size:15px;line-height:125%;font-family:Raavi;-inkscape-font-specification:'Raavi, Normal';text-align:start;letter-spacing:0px;word-spacing:0px;writing-mode:lr-tb;text-anchor:start;fill:#000000;fill-opacity:1;stroke:none;stroke-width:1px;stroke-linecap:butt;stroke-linejoin:miter;stroke-opacity:1"
     x="10.527937"
     y="36.442844"
     id="text4148"
     sodipodi:linespacing="125%"><tspan
       sodipodi:role="line"
       id="tspan4150"
       x="10.527937"
       y="36.442844">Omnis</tspan><tspan
       sodipodi:role="line"
       x="10.527937"
       y="55.192844"
       id="tspan4152">Vanitas</tspan></text>
</svg>
